<svg width="1801" height="1140" viewBox="0 0 1801 1140" fill="none" xmlns="http://www.w3.org/2000/svg">
<line x1="0.50005" y1="2.18557e-08" x2="0.5" y2="1140" stroke="#F0F7FA" stroke-dasharray="50 200"/>
<line x1="120.5" y1="2.18557e-08" x2="120.5" y2="1140" stroke="#F0F7FA" stroke-dasharray="50 200"/>
<line x1="240.5" y1="2.18557e-08" x2="240.5" y2="1140" stroke="#F0F7FA" stroke-dasharray="50 200"/>
<line x1="360.5" y1="2.18557e-08" x2="360.5" y2="1140" stroke="#F0F7FA" stroke-dasharray="50 200"/>
<line x1="480.5" y1="2.18557e-08" x2="480.5" y2="1140" stroke="#F0F7FA" stroke-dasharray="50 200"/>
<line x1="600.5" y1="2.18557e-08" x2="600.5" y2="1140" stroke="#F0F7FA" stroke-dasharray="50 200"/>
<line x1="720.5" y1="2.18557e-08" x2="720.5" y2="1140" stroke="#F0F7FA" stroke-dasharray="50 200"/>
<line x1="840.5" y1="2.18557e-08" x2="840.5" y2="1140" stroke="#F0F7FA" stroke-dasharray="50 200"/>
<line x1="960.5" y1="2.18557e-08" x2="960.5" y2="1140" stroke="#F0F7FA" stroke-dasharray="50 200"/>
<line x1="1080.5" y1="2.18557e-08" x2="1080.5" y2="1140" stroke="#F0F7FA" stroke-dasharray="50 200"/>
<line x1="1200.5" y1="2.18557e-08" x2="1200.5" y2="1140" stroke="#F0F7FA" stroke-dasharray="50 200"/>
<line x1="1320.5" y1="2.18557e-08" x2="1320.5" y2="1140" stroke="#F0F7FA" stroke-dasharray="50 200"/>
<line x1="1440.5" y1="2.18557e-08" x2="1440.5" y2="1140" stroke="#F0F7FA" stroke-dasharray="50 200"/>
<line x1="1560.5" y1="2.18557e-08" x2="1560.5" y2="1140" stroke="#F0F7FA" stroke-dasharray="50 200"/>
<line x1="1680.5" y1="2.18557e-08" x2="1680.5" y2="1140" stroke="#F0F7FA" stroke-dasharray="50 200"/>
<line x1="1800.5" y1="2.18557e-08" x2="1800.5" y2="1140" stroke="#F0F7FA" stroke-dasharray="50 200"/>
</svg>